<mxfile host="app.diagrams.net">
  <diagram name="Interactions Between Components">
    <mxGraphModel dx="640" dy="480" grid="1" gridSize="10" guides="1" tooltips="1" connect="1" arrows="1" fold="1" page="1" pageScale="1" pageWidth="850" pageHeight="1100" math="0" shadow="0">
      <root>
        <mxCell id="0" />
        <mxCell id="1" parent="0" />
        <mxCell id="frontend" value="Frontend (Web/Mobile App)" style="rounded=1;whiteSpace=wrap;html=1;fillColor=#dae8fc;strokeColor=#6c8ebf;" vertex="1" parent="1">
          <mxGeometry x="50" y="50" width="180" height="80" as="geometry" />
        </mxCell>
        <mxCell id="backend" value="Backend (RESTful APIs)" style="rounded=1;whiteSpace=wrap;html=1;fillColor=#fff2cc;strokeColor=#d6b656;" vertex="1" parent="1">
          <mxGeometry x="280" y="50" width="180" height="80" as="geometry" />
        </mxCell>
        <mxCell id="sqlDb" value="SQL Database" style="ellipse;whiteSpace=wrap;html=1;fillColor=#f8cecc;strokeColor=#b85450;" vertex="1" parent="1">
          <mxGeometry x="280" y="200" width="120" height="60" as="geometry" />
        </mxCell>
        <mxCell id="fabricSDK" value="Hyperledger Fabric SDK" style="rounded=1;whiteSpace=wrap;html=1;fillColor=#c3e6cb;strokeColor=#6c757d;" vertex="1" parent="1">
          <mxGeometry x="500" y="50" width="180" height="80" as="geometry" />
        </mxCell>
        <mxCell id="blockchain" value="Blockchain Ledger" style="ellipse;whiteSpace=wrap;html=1;fillColor=#d5e8d4;strokeColor=#82b366;" vertex="1" parent="1">
          <mxGeometry x="500" y="200" width="140" height="60" as="geometry" />
        </mxCell>
        <mxCell id="qrCode" value="QR Code Scan (Mobile App)" style="rounded=1;whiteSpace=wrap;html=1;fillColor=#dae8fc;strokeColor=#6c8ebf;" vertex="1" parent="1">
          <mxGeometry x="50" y="300" width="180" height="80" as="geometry" />
        </mxCell>
        <mxCell id="edge1" style="edgeStyle=orthogonalEdgeStyle;rounded=0;orthogonalLoop=1;html=1;strokeColor=#6c8ebf;" edge="1" parent="1" source="frontend" target="backend">
          <mxGeometry relative="1" as="geometry" />
        </mxCell>
        <mxCell id="edge2" style="edgeStyle=orthogonalEdgeStyle;rounded=0;orthogonalLoop=1;html=1;strokeColor=#d6b656;" edge="1" parent="1" source="backend" target="sqlDb">
          <mxGeometry relative="1" as="geometry" />
        </mxCell>
        <mxCell id="edge3" style="edgeStyle=orthogonalEdgeStyle;rounded=0;orthogonalLoop=1;html=1;strokeColor=#6c757d;" edge="1" parent="1" source="backend" target="fabricSDK">
          <mxGeometry relative="1" as="geometry" />
        </mxCell>
        <mxCell id="edge4" style="edgeStyle=orthogonalEdgeStyle;rounded=0;orthogonalLoop=1;html=1;strokeColor=#82b366;" edge="1" parent="1" source="fabricSDK" target="blockchain">
          <mxGeometry relative="1" as="geometry" />
        </mxCell>
        <mxCell id="edge5" style="edgeStyle=orthogonalEdgeStyle;rounded=0;orthogonalLoop=1;html=1;strokeColor=#6c8ebf;" edge="1" parent="1" source="qrCode" target="fabricSDK">
          <mxGeometry relative="1" as="geometry" />
        </mxCell>
      </root>
    </mxGraphModel>
  </diagram>
</mxfile>

